# xmcd
#
# Track frame offsets:
#	150
#	18058
#	34972
#	52685
#	71278
#	89278
#	106905
#	125003
#	143575
#	162431
#	180349
#	196920
#	212638
#	233349
#	249016
#	265760
#	283099
#	301466
#	317119
#
# Disc length: 4462 seconds
#
# Revision: 0
# Processed by: cddbd v1.5.2PL0 Copyright (c) Steve Scherf et al.
# Submitted via: EZCDAudioConverter 1.3.3.1
#
DISCID=f1116c13
DTITLE=Orquesta Papillón - Sin Ti My Love
DYEAR=2012
DGENRE=Cumbia
TTITLE0=Triste Payaso
TTITLE1=Vicio Mortal
TTITLE2=Cantinero
TTITLE3=Sin Ti My Love
TTITLE4=No Te Vayas De Mi Lado
TTITLE5=La Chica De Mis Sueños
TTITLE6=Vuelve Pronto A Mi Lado
TTITLE7=Falso Amor
TTITLE8=Como La Espuma De Cerveza
TTITLE9=Otra Oportunidad
TTITLE10=Confundido
TTITLE11=Sin Tu Amor
TTITLE12=Que Paso
TTITLE13=Ya No Me Busques
TTITLE14=Lagrimas Por Tu Amor
TTITLE15=Ya No Me Importa Tu Pasado
TTITLE16=Dimelo
TTITLE17=Vendaval de Amor
TTITLE18=Vuelve Amor
EXTD=
EXTT0=
EXTT1=
EXTT2=
EXTT3=
EXTT4=
EXTT5=
EXTT6=
EXTT7=
EXTT8=
EXTT9=
EXTT10=
EXTT11=
EXTT12=
EXTT13=
EXTT14=
EXTT15=
EXTT16=
EXTT17=
EXTT18=
PLAYORDER=
